<?xml version="1.0" encoding="utf-8"?>
<!-- Generator: Adobe Illustrator 22.1.0, SVG Export Plug-In . SVG Version: 6.00 Build 0)  -->
<svg version="1.1" id="Capa_1" xmlns="http://www.w3.org/2000/svg" xmlns:xlink="http://www.w3.org/1999/xlink" x="0px" y="0px"
	 viewBox="0 0 640 214" style="enable-background:new 0 0 640 214;" xml:space="preserve">
<style type="text/css">
	.st0{fill:#FF6347;stroke:#FFFFFF;stroke-width:3;stroke-linecap:round;stroke-linejoin:round;stroke-miterlimit:10;}
	.st1{fill:none;}
	.st2{fill:#FF6347;}
	.st3{font-family:'GothamRounded-Medium';}
	.st4{font-size:36.5342px;}
	.st5{font-family:'GothamRounded-Light';}
	.st6{font-size:15.8844px;}
</style>
<g>
	<polygon class="st0" points="139.8,107 139.8,197 5.1,129.4 5.1,39.5 50,62.1 50,107 95,129.4 95,84.7 139.4,107 139.6,107 	"/>
	<polygon class="st0" points="139.6,107 139.4,107 95,84.7 95,84.5 	"/>
	<polygon class="st0" points="274.6,84.5 274.6,129.4 139.8,197 139.8,107 184.7,84.5 184.7,129.4 	"/>
	<polygon class="st0" points="95,39.5 50,62.1 5.1,39.5 50,17.1 	"/>
	<polygon class="st0" points="95,84.3 94.5,84.5 94.7,84.6 50,107 50,62.1 95,39.5 	"/>
	<polygon class="st0" points="95,84.3 95,84.5 94.7,84.6 94.5,84.5 	"/>
	<polygon class="st0" points="95,84.7 95,129.4 50,107 94.7,84.6 	"/>
	<polygon class="st0" points="95,84.5 95,84.7 94.7,84.6 	"/>
	<polygon class="st0" points="184.4,84.5 139.6,107 95,84.5 95,84.3 139.4,62.1 	"/>
	<polygon class="st0" points="139.6,107 139.4,107 95,84.7 94.7,84.6 94.5,84.5 95,84.3 95,84.5 	"/>
	<polygon class="st0" points="274.6,84.5 184.7,129.4 184.7,84.5 229.7,62.1 	"/>
</g>
<rect x="321.1" y="58.1" class="st1" width="407.9" height="81.8"/>
<text transform="matrix(1 0 0 1 313.0879 102.8789)" class="st2 st3 st4">FELIPE CAÑADA</text>
<text transform="matrix(1 0 0 1 313.0879 134.1807)" class="st2 st5 st6">PROGRAMADOR WEB</text>
</svg>
