<?xml version="1.0" encoding="utf-8"?>
<!-- Generator: Adobe Illustrator 22.1.0, SVG Export Plug-In . SVG Version: 6.00 Build 0)  -->
<svg version="1.1" id="Capa_1" xmlns="http://www.w3.org/2000/svg" xmlns:xlink="http://www.w3.org/1999/xlink" x="0px" y="0px"
	 viewBox="0 0 640 480" style="enable-background:new 0 0 640 480;" xml:space="preserve">
<style type="text/css">
	.st0{fill:#1A1A1A;stroke:#FFFFFF;stroke-width:10;stroke-linecap:round;stroke-linejoin:round;stroke-miterlimit:10;}
	.st1{fill:#1A1A1A;}
	.st2{font-family:'Montserrat-Bold';}
	.st3{font-size:57.6313px;}
	.st4{font-family:'Montserrat-Regular';}
	.st5{font-size:37.682px;}
</style>
<g>
	<polygon class="st0" points="319.3,161.1 319.3,310.2 95.9,198.2 95.9,49.1 170.4,86.5 170.4,161.1 245,198.2 245,123.7 	"/>
	<polygon class="st0" points="542.9,123.7 542.9,198.2 319.3,310.2 319.3,161.1 393.8,123.7 393.8,198.2 	"/>
	<polygon class="st0" points="245,49.1 170.4,86.5 95.9,49.1 170.4,12 	"/>
	<polygon class="st0" points="245,49.1 245,123.7 170.4,161.1 170.4,86.5 	"/>
	<polygon class="st0" points="245,123.7 245,198.2 170.4,161.1 	"/>
	<polygon class="st0" points="393.3,123.7 318.8,161.1 244.2,123.7 318.8,86.5 	"/>
	<polygon class="st0" points="542.9,123.7 393.8,198.2 393.8,123.7 468.4,86.5 	"/>
</g>
<text transform="matrix(1 0 0 1 67.7178 390.7266)" class="st1 st2 st3">FELIPE CAÑADA</text>
<text transform="matrix(1 0 0 1 101.6182 458.293)" class="st1 st4 st5">PROGRAMADOR WEB</text>
</svg>
