<?xml version="1.0" encoding="utf-8"?>
<!-- Generator: Adobe Illustrator 22.1.0, SVG Export Plug-In . SVG Version: 6.00 Build 0)  -->
<svg version="1.1" id="Capa_1" xmlns="http://www.w3.org/2000/svg" xmlns:xlink="http://www.w3.org/1999/xlink" x="0px" y="0px"
	 viewBox="0 0 267.9 248.8" style="enable-background:new 0 0 267.9 248.8;" xml:space="preserve">
<style type="text/css">
	.st0{fill:none;stroke:#99989D;stroke-width:0.5;stroke-miterlimit:10;}
	.st1{fill:#FF6347;stroke:#000000;stroke-width:3;stroke-linecap:round;stroke-linejoin:round;stroke-miterlimit:10;}
</style>
<g>
	<g>
		<rect x="0.3" y="-18.8" class="st0" width="267.4" height="267.4"/>
		<line class="st0" x1="267.8" y1="19.4" x2="0.3" y2="19.4"/>
		<line class="st0" x1="267.8" y1="38.5" x2="0.3" y2="38.5"/>
		<line class="st0" x1="267.8" y1="0.3" x2="0.3" y2="0.3"/>
		<line class="st0" x1="267.8" y1="57.6" x2="0.3" y2="57.6"/>
		<line class="st0" x1="267.8" y1="76.7" x2="0.3" y2="76.7"/>
		<line class="st0" x1="267.8" y1="95.8" x2="0.3" y2="95.8"/>
		<line class="st0" x1="267.8" y1="114.9" x2="0.3" y2="114.9"/>
		<line class="st0" x1="267.8" y1="134" x2="0.3" y2="134"/>
		<line class="st0" x1="267.8" y1="153.1" x2="0.3" y2="153.1"/>
		<line class="st0" x1="267.8" y1="172.2" x2="0.3" y2="172.2"/>
		<line class="st0" x1="267.8" y1="191.3" x2="0.3" y2="191.3"/>
		<line class="st0" x1="267.8" y1="210.4" x2="0.3" y2="210.4"/>
		<line class="st0" x1="267.8" y1="229.5" x2="0.3" y2="229.5"/>
		<line class="st0" x1="38.6" y1="248.6" x2="38.6" y2="-18.8"/>
		<line class="st0" x1="57.7" y1="248.6" x2="57.7" y2="-18.8"/>
		<line class="st0" x1="19.5" y1="248.6" x2="19.5" y2="-18.8"/>
		<line class="st0" x1="76.8" y1="248.6" x2="76.8" y2="-18.8"/>
		<line class="st0" x1="95.9" y1="248.6" x2="95.9" y2="-18.8"/>
		<line class="st0" x1="115" y1="248.6" x2="115" y2="-18.8"/>
		<line class="st0" x1="134.1" y1="248.6" x2="134.1" y2="-18.8"/>
		<line class="st0" x1="153.2" y1="248.6" x2="153.2" y2="-18.8"/>
		<line class="st0" x1="172.3" y1="248.6" x2="172.3" y2="-18.8"/>
		<line class="st0" x1="191.4" y1="248.6" x2="191.4" y2="-18.8"/>
		<line class="st0" x1="210.5" y1="248.6" x2="210.5" y2="-18.8"/>
		<line class="st0" x1="229.6" y1="248.6" x2="229.6" y2="-18.8"/>
		<line class="st0" x1="248.7" y1="248.6" x2="248.7" y2="-18.8"/>
	</g>
	<g>
		<polyline class="st0" points="267.8,229.5 229.6,248.6 191.4,229.5 153.2,248.6 115,229.5 76.8,248.6 38.6,229.5 0.3,248.6 		"/>
		<polyline class="st0" points="267.8,210.4 229.6,229.5 191.4,210.4 153.2,229.5 115,210.4 76.8,229.5 38.6,210.4 0.3,229.5 		"/>
		<polyline class="st0" points="267.8,191.3 229.6,210.4 191.4,191.3 153.2,210.4 115,191.3 76.8,210.4 38.6,191.3 0.3,210.4 		"/>
		<polyline class="st0" points="267.8,172.2 229.6,191.3 191.4,172.2 153.2,191.3 115,172.2 76.8,191.3 38.6,172.2 0.3,191.3 		"/>
		<polyline class="st0" points="267.8,153.1 229.6,172.2 191.4,153.1 153.2,172.2 115,153.1 76.8,172.2 38.6,153.1 0.3,172.2 		"/>
		<polyline class="st0" points="267.8,134 229.6,153.1 191.4,134 153.2,153.1 115,134 76.8,153.1 38.6,134 0.3,153.1 		"/>
		<polyline class="st0" points="267.8,114.9 229.6,134 191.4,114.9 153.2,134 115,114.9 76.8,134 38.6,114.9 0.3,134 		"/>
		<polyline class="st0" points="267.8,95.8 229.6,114.9 191.4,95.8 153.2,114.9 115,95.8 76.8,114.9 38.6,95.8 0.3,114.9 		"/>
		<polyline class="st0" points="267.8,76.7 229.6,95.8 191.4,76.7 153.2,95.8 115,76.7 76.8,95.8 38.6,76.7 0.3,95.8 		"/>
		<polyline class="st0" points="267.8,57.6 229.6,76.7 191.4,57.6 153.2,76.7 115,57.6 76.8,76.7 38.6,57.6 0.3,76.7 		"/>
		<polyline class="st0" points="267.8,38.5 229.6,57.6 191.4,38.5 153.2,57.6 115,38.5 76.8,57.6 38.6,38.5 0.3,57.6 		"/>
		<polyline class="st0" points="267.8,19.4 229.6,38.5 191.4,19.4 153.2,38.5 115,19.4 76.8,38.5 38.6,19.4 0.3,38.5 		"/>
		<polyline class="st0" points="267.8,0.3 229.6,19.4 191.4,0.3 153.2,19.4 115,0.3 76.8,19.4 38.6,0.3 0.3,19.4 		"/>
		<polyline class="st0" points="267.8,-18.8 229.6,0.3 191.4,-18.8 153.2,0.3 115,-18.8 76.8,0.3 38.6,-18.8 0.3,0.3 		"/>
	</g>
	<g>
		<polyline class="st0" points="0.3,229.5 38.6,248.6 76.8,229.5 115,248.6 153.2,229.5 191.4,248.6 229.6,229.5 267.8,248.6 		"/>
		<polyline class="st0" points="0.3,210.4 38.6,229.5 76.8,210.4 115,229.5 153.2,210.4 191.4,229.5 229.6,210.4 267.8,229.5 		"/>
		<polyline class="st0" points="0.3,191.3 38.6,210.4 76.8,191.3 115,210.4 153.2,191.3 191.4,210.4 229.6,191.3 267.8,210.4 		"/>
		<polyline class="st0" points="0.3,172.2 38.6,191.3 76.8,172.2 115,191.3 153.2,172.2 191.4,191.3 229.6,172.2 267.8,191.3 		"/>
		<polyline class="st0" points="0.3,153.1 38.6,172.2 76.8,153.1 115,172.2 153.2,153.1 191.4,172.2 229.6,153.1 267.8,172.2 		"/>
		<polyline class="st0" points="0.3,134 38.6,153.1 76.8,134 115,153.1 153.2,134 191.4,153.1 229.6,134 267.8,153.1 		"/>
		<polyline class="st0" points="0.3,114.9 38.6,134 76.8,114.9 115,134 153.2,114.9 191.4,134 229.6,114.9 267.8,134 		"/>
		<polyline class="st0" points="0.3,95.8 38.6,114.9 76.8,95.8 115,114.9 153.2,95.8 191.4,114.9 229.6,95.8 267.8,114.9 		"/>
		<polyline class="st0" points="0.3,76.7 38.6,95.8 76.8,76.7 115,95.8 153.2,76.7 191.4,95.8 229.6,76.7 267.8,95.8 		"/>
		<polyline class="st0" points="0.3,57.6 38.6,76.7 76.8,57.6 115,76.7 153.2,57.6 191.4,76.7 229.6,57.6 267.8,76.7 		"/>
		<polyline class="st0" points="0.3,38.5 38.6,57.6 76.8,38.5 115,57.6 153.2,38.5 191.4,57.6 229.6,38.5 267.8,57.6 		"/>
		<polyline class="st0" points="0.3,19.4 38.6,38.5 76.8,19.4 115,38.5 153.2,19.4 191.4,38.5 229.6,19.4 267.8,38.5 		"/>
		<polyline class="st0" points="0.3,0.3 38.6,19.4 76.8,0.3 115,19.4 153.2,0.3 191.4,19.4 229.6,0.3 267.8,19.4 		"/>
		<polyline class="st0" points="0.3,-18.8 38.6,0.3 76.8,-18.8 115,0.3 153.2,-18.8 191.4,0.3 229.6,-18.8 267.8,0.3 		"/>
	</g>
</g>
<g>
	<polygon class="st1" points="134.1,124.2 134.1,200.4 19.8,143.2 19.8,66.9 58,86.2 58,124.2 96.1,143.2 96.1,105.2 	"/>
	<polygon class="st1" points="248.4,105.2 248.4,143.2 134.1,200.4 134.1,124.2 172.2,105.2 172.2,143.2 	"/>
	<polygon class="st1" points="96.1,66.9 58,86.2 19.8,66.9 58,48.1 	"/>
	<polygon class="st1" points="96.1,66.9 96.1,105.2 58,124.2 58,86.2 	"/>
	<polygon class="st1" points="96.1,105.2 96.1,143.2 58,124.2 	"/>
	<polygon class="st1" points="171.9,105.2 133.8,124.2 95.7,105.2 133.8,86.2 	"/>
	<polygon class="st1" points="248.4,105.2 172.2,143.2 172.2,105.2 210.3,86.2 	"/>
</g>
</svg>
