<?xml version="1.0" encoding="utf-8"?>
<!-- Generator: Adobe Illustrator 22.1.0, SVG Export Plug-In . SVG Version: 6.00 Build 0)  -->
<svg version="1.1" id="Capa_1" xmlns="http://www.w3.org/2000/svg" xmlns:xlink="http://www.w3.org/1999/xlink" x="0px" y="0px"
	 viewBox="0 0 600 600" style="enable-background:new 0 0 600 600;" xml:space="preserve">
<style type="text/css">
	.st0{fill:#FFFFFF;stroke:#1A1A1A;stroke-width:10;stroke-linecap:round;stroke-linejoin:round;stroke-miterlimit:10;}
</style>
<g>
	<polygon class="st0" points="300.3,300 300.3,494.5 9,348.5 9,154 106.2,202.8 106.2,300 203.5,348.5 203.5,251.8 299.6,300 
		300,299.9 	"/>
	<polygon class="st0" points="300,299.9 299.6,300 203.5,251.8 203.5,251.3 	"/>
	<polygon class="st0" points="592,251.3 592,348.5 300.3,494.5 300.3,300 397.6,251.3 397.6,348.5 	"/>
	<polygon class="st0" points="203.5,154 106.2,202.8 9,154 106.2,105.6 	"/>
	<polygon class="st0" points="203.5,250.8 202.4,251.3 202.9,251.5 106.2,300 106.2,202.8 203.5,154 	"/>
	<polygon class="st0" points="203.5,250.8 203.5,251.3 202.9,251.5 202.4,251.3 	"/>
	<polygon class="st0" points="203.5,251.8 203.5,348.5 106.2,300 202.9,251.5 	"/>
	<polygon class="st0" points="203.5,251.3 203.5,251.8 202.9,251.5 	"/>
	<polygon class="st0" points="396.9,251.3 300,299.9 203.5,251.3 203.5,250.8 299.6,202.8 	"/>
	<polygon class="st0" points="300,299.9 299.6,300 203.5,251.8 202.9,251.5 202.4,251.3 203.5,250.8 203.5,251.3 	"/>
	<polygon class="st0" points="592,251.3 397.6,348.5 397.6,251.3 494.8,202.8 	"/>
</g>
</svg>
